PathFileType	4	(X/Y/Z)	C:\Users\Basilio\Documents\Thesis Gigler\squatting_fais\c3dfiles\073\SJ_pre5\markers_experimental.trc
DataRate	CameraRate	NumFrames	NumMarkers	Units	OrigDataRate	OrigDataStartFrame	OrigNumFrames
200.000000	200.000000	4	61	mm	200.000000	1020	1360
Frame#	Time	FHD			LBHD			RBHD			C7			T10			CLAV			LSHO			LUUPA			LMUPA			LDUPA			LLEP			LMEP			LRAD			LUL			LRFIN			RSHO			RUPA1			RMUPA			RDUPA			RLEP			RMEP			RRAD			RUL			RUFIN			LASI			RASI			USACR			LSACR			RSACR			LTHI1			LTHI2			LTHI3			LTHI4			LLFC			LMFC			LTIB1			LTIB2			LTIB3			LTIB4			LLMAL			LMMAL			LHEE			LMT1			LMT2			LMT5			RTHI			RTHI2			RTHI3			RTHI4			RLFC			RMFC			RTIB1			RTIB2			RTIB3			RTIB4			RLMAL			RMMAL			RHEE			RMT1			RMT2			RMT5			
		X1	Y1	Z1	X2	Y2	Z2	X3	Y3	Z3	X4	Y4	Z4	X5	Y5	Z5	X6	Y6	Z6	X7	Y7	Z7	X8	Y8	Z8	X9	Y9	Z9	X10	Y10	Z10	X11	Y11	Z11	X12	Y12	Z12	X13	Y13	Z13	X14	Y14	Z14	X15	Y15	Z15	X16	Y16	Z16	X17	Y17	Z17	X18	Y18	Z18	X19	Y19	Z19	X20	Y20	Z20	X21	Y21	Z21	X22	Y22	Z22	X23	Y23	Z23	X24	Y24	Z24	X25	Y25	Z25	X26	Y26	Z26	X27	Y27	Z27	X28	Y28	Z28	X29	Y29	Z29	X30	Y30	Z30	X31	Y31	Z31	X32	Y32	Z32	X33	Y33	Z33	X34	Y34	Z34	X35	Y35	Z35	X36	Y36	Z36	X37	Y37	Z37	X38	Y38	Z38	X39	Y39	Z39	X40	Y40	Z40	X41	Y41	Z41	X42	Y42	Z42	X43	Y43	Z43	X44	Y44	Z44	X45	Y45	Z45	X46	Y46	Z46	X47	Y47	Z47	X48	Y48	Z48	X49	Y49	Z49	X50	Y50	Z50	X51	Y51	Z51	X52	Y52	Z52	X53	Y53	Z53	X54	Y54	Z54	X55	Y55	Z55	X56	Y56	Z56	X57	Y57	Z57	X58	Y58	Z58	X59	Y59	Z59	X60	Y60	Z60	X61	Y61	Z61	

1021	5.100000000000001	-329.1937255859376	1675.840087890625	-967.6765747070315	-464.2210388183595	1641.659301757813	-976.459899902344	-473.2227478027345	1626.269287109375	-841.7339477539065	-513.6309814453126	1532.912109375	-905.7993164062502	-582.3917236328126	1193.22900390625	-912.3345336914065	-389.3585205078126	1445.326538085938	-911.2773437500002	-425.8963012695314	1476.905395507813	-1081.784912109375	-506.729217529297	1396.483154296875	-1198.080444335938	-488.0307922363282	1349.676635742188	-1205.210693359375	-538.0521850585939	1350.615966796875	-1241.90185546875	-572.1726684570314	1266.177978515625	-1294.66064453125	-643.9708251953126	1251.521728515625	-1252.96484375	-508.8045654296876	1048.507080078125	-1150.828125	-472.9971313476564	1032.573974609375	-1214.119018554688	-465.9962768554689	1035.433227539063	-1105.484497070313	-400.8864746093751	1467.257690429688	-738.3598632812501	-491.0234680175782	1378.771362304688	-600.1378784179689	-476.889373779297	1331.432861328125	-597.1301879882814	-525.7930908203126	1331.978149414063	-561.7827758789064	-552.6690063476564	1251.440063476563	-521.7116088867189	-626.9311523437501	1245.019409179688	-578.4813842773439	-534.2860107421876	1033.830932617188	-680.2098999023439	-491.2632446289064	1009.786193847656	-622.1339111328126	-473.319305419922	1025.761474609375	-723.4174804687501	-417.9013061523439	1038.210815429688	-1050.190551757813	-416.4778137207032	1016.618835449219	-798.4543457031252	-598.6156616210939	1083.892700195313	-911.4866333007815	-609.4723510742189	1056.390869140625	-940.4771728515627	-612.9267578125001	1051.847290039063	-884.889831542969	-455.6734008789064	722.5054321289064	-1137.63232421875	-419.4173889160157	645.4412841796876	-1129.46728515625	-377.9749755859376	647.1498413085939	-1102.733520507813	-447.2007751464845	593.7098388671876	-1129.146728515625	-448.5345764160157	534.1057739257814	-1138.434692382813	-446.5760498046876	510.5586853027345	-1003.239807128906	-427.8334350585939	327.0460205078126	-1114.216674804688	-492.6110839843751	301.4668579101563	-1168.542114257813	-453.0855102539064	286.9250488281251	-1150.408813476563	-463.531951904297	206.1040191650391	-1126.397338867188	-542.6365356445314	97.60594177246097	-1164.695190429688	-527.2489013671876	113.7235488891602	-1078.266479492188	-600.9769287109376	59.51986312866212	-1125.509521484375	-374.5873718261719	56.47408676147462	-1095.712890625	-373.9580078125001	60.37343597412111	-1134.085327148438	-410.2566833496095	38.75511550903321	-1187.7001953125	-505.8011169433595	798.786804199219	-708.2573852539064	-468.0522766113282	744.8948364257814	-699.1951904296876	-434.7365722656251	746.8035888671876	-704.1519165039064	-492.8972778320314	664.6037597656251	-710.6763916015626	-466.2611389160157	516.4063110351564	-703.2129516601564	-451.5491333007814	486.2434997558595	-829.0252075195315	-407.9689025878907	345.0902404785157	-761.2459716796876	-433.8130187988282	271.9581604003907	-687.4102783203126	-403.846893310547	266.1941528320313	-725.1714477539064	-418.1389160156251	216.4042205810547	-751.7493286132814	-462.7545471191407	84.12583923339845	-684.2802734375001	-444.6746215820314	104.3402633666992	-772.7543945312502	-517.2346801757814	37.21519470214844	-746.0449218750001	-297.1709289550782	82.77621459960939	-711.1553344726564	-306.2469177246094	81.95358276367189	-670.4864501953126	-349.3802795410157	46.13636016845704	-633.8453369140626	
1022	5.105	-330.0355529785157	1675.59033203125	-969.5073242187502	-465.3253173828126	1641.351928710938	-978.213317871094	-473.9169921875001	1625.8671875	-843.3025512695315	-514.6068115234376	1532.474487304688	-907.7998046875002	-583.0366821289064	1192.780883789063	-914.096618652344	-390.1777954101564	1444.93310546875	-912.7827758789065	-426.633026123047	1476.318237304688	-1083.591674804688	-507.2779846191407	1395.573486328125	-1200.009643554688	-488.527069091797	1348.856567382813	-1207.0859375	-538.0677490234376	1349.530395507813	-1243.619140625	-572.2256469726564	1264.965209960938	-1296.71337890625	-643.9782104492189	1250.26025390625	-1254.898681640625	-508.5347900390626	1047.543090820313	-1152.551879882813	-472.6221008300782	1031.594360351563	-1215.727416992188	-465.9340209960939	1034.755493164063	-1107.105346679688	-402.083953857422	1466.857543945313	-740.1563720703126	-492.297576904297	1378.349487304688	-601.7764282226564	-477.9768066406251	1330.966186523438	-598.7609252929689	-526.8890991210939	1331.725708007813	-563.4771728515626	-553.8734741210939	1251.065307617188	-523.4969482421876	-628.0532226562501	1244.470458984375	-580.3771972656251	-534.8338623046876	1033.4033203125	-681.7468261718751	-492.1362915039064	1009.315124511719	-623.6634521484376	-474.1033325195314	1025.346557617188	-724.7287597656251	-417.9896545410157	1037.640380859375	-1051.46728515625	-417.0860595703126	1016.417602539063	-799.9987792968752	-599.2377929687501	1083.312744140625	-913.3515625000002	-610.5228271484376	1055.919555664063	-942.164245605469	-613.6929321289064	1051.362060546875	-886.691833496094	-456.5373840332032	721.8168945312501	-1138.223266601563	-420.6331481933595	644.5953979492189	-1130.0556640625	-379.2966003417969	646.2838745117189	-1103.378662109375	-448.8042907714845	593.0930175781251	-1129.748168945313	-450.1618957519532	533.5211181640626	-1138.873046875	-448.0357360839845	510.1986083984376	-1003.530334472656	-428.9109802246095	326.4804382324219	-1114.5146484375	-493.478729248047	300.5822448730469	-1168.9404296875	-453.5504760742189	286.3018798828126	-1150.536987304688	-463.6949157714845	205.3800048828126	-1126.53759765625	-542.3385009765626	96.4676208496094	-1164.693603515625	-526.9173583984376	112.6453323364258	-1078.237426757813	-600.6575927734376	58.39903640747072	-1125.362060546875	-374.4215698242188	55.94083786010744	-1096.123046875	-373.7696838378907	59.9436721801758	-1134.46728515625	-410.2386474609376	38.15665435791016	-1188.34619140625	-505.930389404297	798.6319580078127	-709.4851684570314	-468.1966552734376	744.8150634765626	-700.3307495117189	-434.8402404785157	746.7716064453126	-705.0534667968751	-492.8146972656251	664.4227905273439	-711.7711181640626	-465.7856750488282	516.3602294921876	-703.9749145507814	-450.9599914550782	486.0813598632814	-829.7407836914065	-407.7859802246095	344.9891967773438	-761.5977172851564	-433.5242614746095	271.9663696289063	-687.8172607421876	-403.5469360351564	266.0866699218751	-725.5707397460939	-417.8972167968751	216.2904968261719	-751.9939575195314	-462.5824279785157	84.15073394775392	-684.3220214843751	-444.6018371582032	104.2483978271485	-772.830993652344	-517.2214355468751	37.24681472778321	-746.0283813476564	-297.0870971679688	82.53789520263673	-711.3744506835939	-306.0819702148438	81.77297210693361	-670.6437988281251	-349.2851257324219	45.99564361572266	-633.9475708007814	
1023	5.11	-327.5651245117188	1675.96337890625	-971.6836547851565	-466.4264526367189	1640.9765625	-979.936706542969	-474.788055419922	1625.374877929688	-845.189636230469	-515.4888305664064	1532.135864257813	-909.7698364257815	-583.7307739257814	1192.283813476563	-916.013854980469	-391.1931762695314	1444.564575195313	-914.7362060546877	-427.3484497070314	1475.789428710938	-1085.346435546875	-507.5812988281251	1394.845458984375	-1202.08837890625	-488.7143859863282	1348.102172851563	-1208.491333007813	-538.3814086914064	1348.549438476563	-1245.709106445313	-572.1353149414064	1264.046142578125	-1298.575927734375	-643.8258666992189	1248.892822265625	-1256.895385742188	-508.1037597656251	1046.61328125	-1154.157958984375	-472.0925292968751	1030.833251953125	-1217.44140625	-465.7790832519532	1033.901611328125	-1108.8125	-403.2740173339845	1466.540405273438	-741.8851318359376	-493.4341735839845	1377.981811523438	-603.7202758789064	-479.2990722656251	1330.570678710938	-600.6596679687501	-528.1275634765626	1331.383422851563	-565.3893432617189	-555.1795654296876	1250.65380859375	-525.4465942382814	-629.3195190429689	1244.00634765625	-582.2071533203126	-535.8921508789064	1032.835693359375	-683.3692626953126	-492.9556884765626	1008.968627929688	-625.1586914062501	-474.7463684082032	1025.0087890625	-726.2095947265626	-418.1960754394532	1037.087524414063	-1053.042114257813	-417.6131286621095	1016.30078125	-801.264099121094	-599.7395629882814	1082.7197265625	-915.0789184570315	-610.0910644531251	1054.927856445313	-944.2173461914065	-613.9684448242189	1050.628662109375	-888.5570068359377	-457.7312622070314	721.1068115234376	-1139.19775390625	-421.9725341796876	643.8222656250001	-1130.676513671875	-380.7389221191407	645.4758911132814	-1104.063354492188	-450.6132812500001	592.4191284179689	-1130.344970703125	-451.9794921875001	532.9152221679689	-1139.628784179688	-449.7598571777345	509.8632812500001	-1003.869201660156	-429.8112792968751	325.9336853027344	-1115.16064453125	-493.9187316894532	299.5163879394532	-1169.080810546875	-454.1738586425782	285.5045471191407	-1150.906372070313	-463.6748046875001	204.5597534179688	-1126.837890625	-541.7807006835939	95.31649017333986	-1164.593383789063	-526.2148437500001	111.4673614501953	-1078.045166015625	-600.1289672851564	57.53525924682619	-1125.056884765625	-373.7080688476563	55.82246780395509	-1096.656494140625	-373.0969848632813	59.41377639770509	-1134.958862304688	-409.7280273437501	37.87698364257813	-1188.965209960938	-506.1901245117189	798.403747558594	-710.8076782226564	-468.2517700195314	744.7676391601564	-701.3105468750001	-434.9898681640626	746.7574462890626	-706.3398437500001	-492.7809448242189	664.2105712890626	-712.7717895507814	-465.3434448242189	516.2971801757814	-704.6779174804689	-450.293182373047	485.828582763672	-830.5574340820315	-407.442108154297	344.8111877441407	-762.1909790039064	-433.1581115722657	271.9820251464844	-688.2327270507814	-403.2275695800782	265.9951171875001	-725.9961547851564	-417.6617431640626	216.1486358642579	-752.3870849609376	-462.4863281250001	84.13979339599611	-684.3577270507814	-444.4712219238282	104.1693801879883	-772.9472656250002	-517.1433105468751	37.27964782714844	-746.0160522460939	-296.8699035644532	82.30876922607423	-711.5258789062501	-305.9499816894532	81.55892181396486	-670.8235473632814	-349.1403503417969	45.85896682739259	-634.1177368164064	
1024	5.115	-328.9507446289063	1675.475219726563	-973.9468383789065	-467.6181640625001	1640.680419921875	-981.8024902343752	-475.5598449707032	1625.040161132813	-847.1418457031252	-516.5122070312501	1531.704711914063	-911.8128051757815	-584.4877929687501	1191.725463867188	-918.001892089844	-391.9651794433595	1444.136352539063	-916.4248046875002	-428.1090698242189	1475.11962890625	-1087.3017578125	-507.9613342285157	1393.935913085938	-1203.989379882813	-488.9188842773439	1347.14306640625	-1210.645874023438	-538.5279541015626	1347.669311523438	-1247.634521484375	-571.8765258789064	1262.947875976563	-1300.338745117188	-643.7706909179689	1247.790771484375	-1258.96044921875	-508.0774841308595	1045.738037109375	-1155.971923828125	-471.7826232910157	1029.9580078125	-1218.91650390625	-465.5733337402345	1033.225708007813	-1110.486328125	-404.5258789062501	1466.147338867188	-743.8309326171876	-494.738739013672	1377.5283203125	-605.6935424804689	-480.5185546875001	1330.143188476563	-602.5816040039064	-529.4161987304689	1330.96484375	-567.2990722656251	-556.4367065429689	1250.2958984375	-527.3853759765626	-630.4707031250001	1243.5126953125	-584.2713012695314	-536.5531616210939	1032.382690429688	-684.9025878906251	-493.8855590820314	1008.599243164063	-626.8133544921876	-475.5233764648439	1024.662719726563	-727.6855468750001	-418.2047729492189	1036.41552734375	-1054.445068359375	-418.2464294433595	1016.117553710938	-802.7727661132815	-600.2967529296876	1082.089233398438	-917.0837402343752	-611.3902587890626	1054.527099609375	-945.8408813476565	-614.7033081054689	1050.147094726563	-890.4088134765627	-459.0758056640626	720.6673583984376	-1140.254638671875	-423.8961181640626	643.0541992187501	-1131.604248046875	-382.6167602539063	644.4859619140626	-1104.862060546875	-452.6310424804689	591.7028808593751	-1131.045654296875	-454.522430419922	532.2650756835939	-1139.913940429688	-451.8039550781251	509.5773925781251	-1004.291137695313	-430.4828491210939	325.4093627929688	-1115.604125976563	-494.5157470703126	298.4709777832032	-1169.537841796875	-454.4728088378907	284.6499633789063	-1151.37451171875	-463.6442871093751	203.6614685058594	-1127.15478515625	-541.4168090820314	94.42646789550783	-1164.429321289063	-525.2929077148439	110.346305847168	-1077.641479492188	-599.6618041992189	56.73307418823244	-1124.732543945313	-372.8992309570313	55.57330703735353	-1096.93359375	-372.4388427734376	58.74255371093751	-1135.256713867188	-409.1870117187501	37.69811630249024	-1189.138061523438	-506.4576416015626	798.135681152344	-712.1944580078126	-468.354217529297	744.6096191406251	-702.6215209960939	-435.0948486328126	746.7063598632814	-707.5015869140626	-492.621307373047	663.9716186523439	-713.9815063476564	-464.752655029297	516.2229003906251	-705.6448364257814	-449.6767883300782	485.6207580566407	-831.3940429687502	-407.1196594238282	344.6654357910157	-762.7668457031251	-432.8181457519532	271.9934082031251	-688.6871948242189	-402.943328857422	265.9061889648438	-726.4314575195314	-417.3666992187501	215.9817504882813	-752.6986083984376	-462.3048400878907	84.15144348144533	-684.4694824218751	-444.3279113769532	104.0421981811524	-773.048034667969	-517.1015625000001	37.32075881958009	-746.0280151367189	-296.7700195312501	82.05836486816408	-711.7200317382814	-305.7710266113282	81.36186981201173	-670.9766235351564	-348.9535522460938	45.72215652465821	-634.2531738281251	
